<svg width="327" height="40" viewBox="0 0 327 40" fill="none" xmlns="http://www.w3.org/2000/svg">
<g clip-path="url(#clip0_60_1076)">
<path d="M0 39.2654V0H25.549V8.65368H10.2431V15.4236H14.2462C20.0938 15.4236 24.2342 16.6991 26.6675 19.25C28.669 21.3693 29.6698 24.0773 29.6698 27.3739C29.6698 30.7883 28.5905 33.5747 26.432 35.7332C24.038 38.088 19.8583 39.2654 13.893 39.2654H0ZM10.2431 31.3181H13.7753C15.9338 31.3181 17.4447 30.8668 18.3081 29.9641C18.9753 29.2185 19.3089 28.2962 19.3089 27.1973C19.3089 25.9414 18.9164 24.9603 18.1315 24.2539C17.3074 23.5474 15.8553 23.1942 13.7753 23.1942H10.2431V31.3181Z" fill="#1D9F3A"/>
<path d="M62.5336 39.2654L60.12 32.6721H45.8738L43.2247 39.2654H32.4518L47.5221 0H58.6483L73.4243 39.2654H62.5336ZM48.6995 24.9014H57.4121L52.9969 12.1858L48.6995 24.9014Z" fill="#1D9F3A"/>
<path d="M110.215 0L91.7302 30.6117H108.213V39.2654H74.5994L93.2019 8.65368H77.7783V0H110.215Z" fill="#1D9F3A"/>
<path d="M141.466 39.2654L139.052 32.6721H124.806L122.157 39.2654H111.384L126.454 0H137.581L152.357 39.2654H141.466ZM127.632 24.9014H136.344L131.929 12.1858L127.632 24.9014Z" fill="#1D9F3A"/>
<path d="M183.753 28.8455V23.1234C184.554 23.8534 185.354 24.4068 186.155 24.7835C187.214 25.3016 188.474 25.5606 189.934 25.5606C191.889 25.5606 193.431 25.1014 194.561 24.1831C195.786 23.2176 196.527 21.9108 196.786 20.2624H187.638V15.8826H196.751C196.469 14.4462 195.809 13.2806 194.773 12.3858C193.619 11.3497 192.053 10.8317 190.075 10.8317C188.663 10.8317 187.367 11.126 186.19 11.7147C185.437 12.0679 184.624 12.6213 183.753 13.3748V7.58214C185.919 6.45186 188.168 5.88672 190.499 5.88672C194.126 5.88672 196.998 6.93458 199.118 9.0303C201.378 11.2438 202.508 14.2814 202.508 18.1432C202.508 22.0285 201.39 25.1132 199.153 27.3973C197.952 28.6218 196.669 29.4459 195.303 29.8698C193.937 30.2936 192.418 30.5056 190.747 30.5056C187.968 30.5056 185.637 29.9522 183.753 28.8455Z" fill="#1B1B1B"/>
<path d="M205.972 29.9758V14.2225H211.058V20.4744L216.215 14.2225H222.537L215.791 21.534L222.996 29.9758H216.427L211.058 22.9822V29.9758H205.972Z" fill="#1B1B1B"/>
<path d="M236.534 14.5757V19.2028C235.569 18.4022 234.462 18.0019 233.214 18.0019C232.036 18.0019 231.071 18.3786 230.318 19.1322C229.54 19.9092 229.152 20.8982 229.152 22.0991C229.152 23.2294 229.505 24.1713 230.212 24.9248C230.989 25.7725 232.013 26.1964 233.285 26.1964C234.485 26.1964 235.569 25.7843 236.534 24.9601V29.5519C235.38 30.1877 234.038 30.5056 232.507 30.5056C230.059 30.5056 228.022 29.7167 226.397 28.1391C224.749 26.5378 223.924 24.5363 223.924 22.1345C223.924 19.6384 224.796 17.5663 226.538 15.9179C228.116 14.4344 230.117 13.6927 232.543 13.6927C233.956 13.6927 235.286 13.987 236.534 14.5757Z" fill="#1B1B1B"/>
<path d="M239.913 29.9758V14.2225H255.56V29.9758H250.474V18.3198H244.999V29.9758H239.913Z" fill="#1B1B1B"/>
<path d="M264.591 28.1744V38.0643H259.505V14.2225H264.591V16.0945C265.816 14.4933 267.452 13.6927 269.501 13.6927C271.738 13.6927 273.598 14.4344 275.082 15.9179C276.66 17.4956 277.448 19.5442 277.448 22.0638C277.448 24.6069 276.612 26.7144 274.941 28.3863C273.528 29.7991 271.75 30.5056 269.607 30.5056C267.37 30.5056 265.698 29.7285 264.591 28.1744ZM268.265 18.0725C267.158 18.0725 266.216 18.4611 265.439 19.2381C264.639 20.0387 264.238 21.0042 264.238 22.1345C264.238 23.1941 264.615 24.1242 265.369 24.9248C266.169 25.7254 267.135 26.1257 268.265 26.1257C269.301 26.1257 270.208 25.7608 270.985 25.0308C271.809 24.2537 272.221 23.253 272.221 22.0285C272.221 20.8747 271.821 19.921 271.02 19.1675C270.243 18.4375 269.324 18.0725 268.265 18.0725Z" fill="#1B1B1B"/>
<path d="M285.172 19.9445H292.059C291.871 19.191 291.529 18.5788 291.035 18.1078C290.399 17.5192 289.598 17.2248 288.633 17.2248C287.597 17.2248 286.737 17.5662 286.055 18.2491C285.584 18.7436 285.289 19.3088 285.172 19.9445ZM296.757 22.4523V22.9822H284.995C284.995 24.0653 285.313 24.9601 285.949 25.6666C286.561 26.3259 287.432 26.6556 288.562 26.6556C289.41 26.6556 290.093 26.5025 290.611 26.1964C291.011 25.9845 291.376 25.5488 291.706 24.8895L296.51 25.384C295.968 27.103 294.956 28.4216 293.472 29.34C292.177 30.117 290.517 30.5056 288.492 30.5056C285.807 30.5056 283.712 29.7521 282.205 28.245C280.627 26.6673 279.838 24.6423 279.838 22.1698C279.838 19.6737 280.639 17.6016 282.24 15.9533C283.747 14.4462 285.76 13.6927 288.28 13.6927C290.941 13.6927 293.025 14.4815 294.532 16.0592C296.015 17.6369 296.757 19.7679 296.757 22.4523Z" fill="#1B1B1B"/>
<path d="M311.764 14.5757V19.2028C310.799 18.4022 309.692 18.0019 308.444 18.0019C307.266 18.0019 306.301 18.3786 305.547 19.1322C304.77 19.9092 304.382 20.8982 304.382 22.0991C304.382 23.2294 304.735 24.1713 305.441 24.9248C306.219 25.7725 307.243 26.1964 308.514 26.1964C309.715 26.1964 310.799 25.7843 311.764 24.9601V29.5519C310.61 30.1877 309.268 30.5056 307.737 30.5056C305.288 30.5056 303.252 29.7167 301.627 28.1391C299.978 26.5378 299.154 24.5363 299.154 22.1345C299.154 19.6384 300.026 17.5663 301.768 15.9179C303.346 14.4344 305.347 13.6927 307.773 13.6927C309.186 13.6927 310.516 13.987 311.764 14.5757Z" fill="#1B1B1B"/>
<path d="M326.976 14.5757V19.2028C326.01 18.4022 324.903 18.0019 323.655 18.0019C322.478 18.0019 321.513 18.3786 320.759 19.1322C319.982 19.9092 319.593 20.8982 319.593 22.0991C319.593 23.2294 319.947 24.1713 320.653 24.9248C321.43 25.7725 322.454 26.1964 323.726 26.1964C324.927 26.1964 326.01 25.7843 326.976 24.9601V29.5519C325.822 30.1877 324.479 30.5056 322.949 30.5056C320.5 30.5056 318.463 29.7167 316.838 28.1391C315.19 26.5378 314.366 24.5363 314.366 22.1345C314.366 19.6384 315.237 17.5663 316.98 15.9179C318.557 14.4344 320.559 13.6927 322.984 13.6927C324.397 13.6927 325.728 13.987 326.976 14.5757Z" fill="#1B1B1B"/>
</g>
<defs>
<clipPath id="clip0_60_1076">
<rect width="327" height="39.2654" fill="white"/>
</clipPath>
</defs>
</svg>
