<svg width="171" height="38" viewBox="0 0 171 38" fill="none" xmlns="http://www.w3.org/2000/svg">
<path d="M2.1 29V8.99H15.12V13.4H7.32V16.85H9.36C12.34 16.85 14.45 17.5 15.69 18.8C16.71 19.88 17.22 21.26 17.22 22.94C17.22 24.68 16.67 26.1 15.57 27.2C14.35 28.4 12.22 29 9.18 29H2.1ZM7.32 24.95H9.12C10.22 24.95 10.99 24.72 11.43 24.26C11.77 23.88 11.94 23.41 11.94 22.85C11.94 22.21 11.74 21.71 11.34 21.35C10.92 20.99 10.18 20.81 9.12 20.81H7.32V24.95ZM33.9677 29L32.7377 25.64H25.4777L24.1277 29H18.6377L26.3177 8.99H31.9877L39.5177 29H33.9677ZM26.9177 21.68H31.3577L29.1077 15.2L26.9177 21.68ZM58.2666 8.99L48.8466 24.59H57.2466V29H40.1166L49.5966 13.4H41.7366V8.99H58.2666ZM74.1923 29L72.9623 25.64H65.7023L64.3523 29H58.8623L66.5423 8.99H72.2123L79.7423 29H74.1923ZM67.1423 21.68H71.5823L69.3323 15.2L67.1423 21.68Z" fill="#1D9F3A"/>
<path d="M96.9 24.924V22.008C97.308 22.38 97.716 22.662 98.124 22.854C98.664 23.118 99.306 23.25 100.05 23.25C101.046 23.25 101.832 23.016 102.408 22.548C103.032 22.056 103.41 21.39 103.542 20.55H98.88V18.318H103.524C103.38 17.586 103.044 16.992 102.516 16.536C101.928 16.008 101.13 15.744 100.122 15.744C99.402 15.744 98.742 15.894 98.142 16.194C97.758 16.374 97.344 16.656 96.9 17.04V14.088C98.004 13.512 99.15 13.224 100.338 13.224C102.186 13.224 103.65 13.758 104.73 14.826C105.882 15.954 106.458 17.502 106.458 19.47C106.458 21.45 105.888 23.022 104.748 24.186C104.136 24.81 103.482 25.23 102.786 25.446C102.09 25.662 101.316 25.77 100.464 25.77C99.048 25.77 97.86 25.488 96.9 24.924ZM108.223 25.5V17.472H110.815V20.658L113.443 17.472H116.665L113.227 21.198L116.899 25.5H113.551L110.815 21.936V25.5H108.223ZM123.798 17.652V20.01C123.306 19.602 122.742 19.398 122.106 19.398C121.506 19.398 121.014 19.59 120.63 19.974C120.234 20.37 120.036 20.874 120.036 21.486C120.036 22.062 120.216 22.542 120.576 22.926C120.972 23.358 121.494 23.574 122.142 23.574C122.754 23.574 123.306 23.364 123.798 22.944V25.284C123.21 25.608 122.526 25.77 121.746 25.77C120.498 25.77 119.46 25.368 118.632 24.564C117.792 23.748 117.372 22.728 117.372 21.504C117.372 20.232 117.816 19.176 118.704 18.336C119.508 17.58 120.528 17.202 121.764 17.202C122.484 17.202 123.162 17.352 123.798 17.652ZM125.52 25.5V17.472H133.494V25.5H130.902V19.56H128.112V25.5H125.52ZM138.096 24.582V29.622H135.504V17.472H138.096V18.426C138.72 17.61 139.554 17.202 140.598 17.202C141.738 17.202 142.686 17.58 143.442 18.336C144.246 19.14 144.648 20.184 144.648 21.468C144.648 22.764 144.222 23.838 143.37 24.69C142.65 25.41 141.744 25.77 140.652 25.77C139.512 25.77 138.66 25.374 138.096 24.582ZM139.968 19.434C139.404 19.434 138.924 19.632 138.528 20.028C138.12 20.436 137.916 20.928 137.916 21.504C137.916 22.044 138.108 22.518 138.492 22.926C138.9 23.334 139.392 23.538 139.968 23.538C140.496 23.538 140.958 23.352 141.354 22.98C141.774 22.584 141.984 22.074 141.984 21.45C141.984 20.862 141.78 20.376 141.372 19.992C140.976 19.62 140.508 19.434 139.968 19.434ZM148.584 20.388H152.094C151.998 20.004 151.824 19.692 151.572 19.452C151.248 19.152 150.84 19.002 150.348 19.002C149.82 19.002 149.382 19.176 149.034 19.524C148.794 19.776 148.644 20.064 148.584 20.388ZM154.488 21.666V21.936H148.494C148.494 22.488 148.656 22.944 148.98 23.304C149.292 23.64 149.736 23.808 150.312 23.808C150.744 23.808 151.092 23.73 151.356 23.574C151.56 23.466 151.746 23.244 151.914 22.908L154.362 23.16C154.086 24.036 153.57 24.708 152.814 25.176C152.154 25.572 151.308 25.77 150.276 25.77C148.908 25.77 147.84 25.386 147.072 24.618C146.268 23.814 145.866 22.782 145.866 21.522C145.866 20.25 146.274 19.194 147.09 18.354C147.858 17.586 148.884 17.202 150.168 17.202C151.524 17.202 152.586 17.604 153.354 18.408C154.11 19.212 154.488 20.298 154.488 21.666ZM162.136 17.652V20.01C161.644 19.602 161.08 19.398 160.444 19.398C159.844 19.398 159.352 19.59 158.968 19.974C158.572 20.37 158.374 20.874 158.374 21.486C158.374 22.062 158.554 22.542 158.914 22.926C159.31 23.358 159.832 23.574 160.48 23.574C161.092 23.574 161.644 23.364 162.136 22.944V25.284C161.548 25.608 160.864 25.77 160.084 25.77C158.836 25.77 157.798 25.368 156.97 24.564C156.13 23.748 155.71 22.728 155.71 21.504C155.71 20.232 156.154 19.176 157.042 18.336C157.846 17.58 158.866 17.202 160.102 17.202C160.822 17.202 161.5 17.352 162.136 17.652ZM169.888 17.652V20.01C169.396 19.602 168.832 19.398 168.196 19.398C167.596 19.398 167.104 19.59 166.72 19.974C166.324 20.37 166.126 20.874 166.126 21.486C166.126 22.062 166.306 22.542 166.666 22.926C167.062 23.358 167.584 23.574 168.232 23.574C168.844 23.574 169.396 23.364 169.888 22.944V25.284C169.3 25.608 168.616 25.77 167.836 25.77C166.588 25.77 165.55 25.368 164.722 24.564C163.882 23.748 163.462 22.728 163.462 21.504C163.462 20.232 163.906 19.176 164.794 18.336C165.598 17.58 166.618 17.202 167.854 17.202C168.574 17.202 169.252 17.352 169.888 17.652Z" fill="#616161"/>
</svg>
