<svg width="91" height="25" viewBox="0 0 91 25" fill="none" xmlns="http://www.w3.org/2000/svg">
<path d="M14.9135 12.1531C14.8914 9.49867 17.0711 8.20853 17.1668 8.14921C15.9297 6.34004 14.0152 6.08795 13.3451 6.0657C11.7398 5.89517 10.1787 7.03702 9.36131 7.03702C8.52921 7.03702 7.26265 6.08795 5.90773 6.11019C4.16254 6.13985 2.52044 7.15565 1.62943 8.74238C-0.218856 11.9677 1.15815 16.7131 2.9328 19.323C3.82381 20.5983 4.85473 22.0294 6.21701 21.9775C7.54247 21.9256 8.0432 21.1248 9.64112 21.1248C11.2317 21.1248 11.6956 21.9775 13.08 21.9478C14.5085 21.9256 15.3995 20.6651 16.2611 19.3749C17.2846 17.9143 17.697 16.4684 17.7117 16.3943C17.6749 16.3794 14.943 15.3266 14.9135 12.1531Z" fill="#1B1B1B"/>
<path d="M12.2992 4.35281C13.0135 3.45564 13.4995 2.23223 13.3669 0.986572C12.336 1.03106 11.04 1.70579 10.2963 2.58813C9.6409 3.36666 9.05181 4.63456 9.19908 5.82832C10.3625 5.91729 11.5555 5.23515 12.2992 4.35281Z" fill="#1B1B1B"/>
<path d="M34.1473 21.792H32.2917L31.2755 18.574H27.7409L26.7763 21.792H24.9722L28.4699 10.8406H30.6348L34.1473 21.792ZM30.9736 17.2246L30.0531 14.3699C29.9574 14.0734 29.7733 13.3912 29.5082 12.3087H29.4714C29.3609 12.7758 29.1916 13.4654 28.9559 14.3699L28.0502 17.2246H30.9736Z" fill="#1B1B1B"/>
<path d="M43.1381 17.7509C43.1381 19.0929 42.7773 20.1532 42.0483 20.9318C41.4003 21.6287 40.5903 21.9698 39.633 21.9698C38.5948 21.9698 37.851 21.5991 37.3945 20.8502V24.995H35.6493V16.4904C35.6493 15.6451 35.6272 14.7851 35.583 13.8953H37.1147L37.2104 15.1484H37.2398C37.8216 14.2067 38.7052 13.7322 39.8834 13.7322C40.8112 13.7322 41.577 14.1029 42.1956 14.837C42.8289 15.5784 43.1381 16.5423 43.1381 17.7509ZM41.3635 17.8102C41.3635 17.0391 41.1941 16.4089 40.848 15.9121C40.4725 15.3931 39.9644 15.1335 39.3311 15.1335C38.904 15.1335 38.5138 15.2818 38.1603 15.5636C37.8142 15.8528 37.5786 16.2235 37.4755 16.6906C37.4239 16.9056 37.3945 17.0836 37.3945 17.2245V18.5443C37.3945 19.1152 37.5712 19.6045 37.9173 19.9975C38.2634 20.3905 38.7199 20.5907 39.2796 20.5907C39.9349 20.5907 40.443 20.3312 40.8112 19.827C41.1794 19.3154 41.3635 18.6481 41.3635 17.8102Z" fill="#1B1B1B"/>
<path d="M52.1513 17.7509C52.1513 19.0929 51.7905 20.1532 51.0615 20.9318C50.4135 21.6287 49.6035 21.9698 48.6462 21.9698C47.6079 21.9698 46.8642 21.5991 46.4077 20.8502V24.995H44.6625V16.4904C44.6625 15.6451 44.6404 14.7851 44.5962 13.8953H46.1278L46.2236 15.1484H46.253C46.8347 14.2067 47.7184 13.7322 48.8966 13.7322C49.8244 13.7322 50.5902 14.1029 51.2088 14.837C51.8421 15.5784 52.1513 16.5423 52.1513 17.7509ZM50.3767 17.8102C50.3767 17.0391 50.2073 16.4089 49.8612 15.9121C49.4857 15.3931 48.9776 15.1335 48.3443 15.1335C47.9172 15.1335 47.5269 15.2818 47.1735 15.5636C46.8274 15.8528 46.5991 16.2235 46.4887 16.6906C46.4371 16.9056 46.4077 17.0836 46.4077 17.2245V18.5443C46.4077 19.1152 46.5844 19.6045 46.9305 19.9975C47.2766 20.3905 47.7331 20.5907 48.2928 20.5907C48.9481 20.5907 49.4636 20.3312 49.8244 19.827C50.2 19.3154 50.3767 18.6481 50.3767 17.8102Z" fill="#1B1B1B"/>
<path d="M62.2397 18.7223C62.2397 19.6565 61.9157 20.4128 61.2751 20.9986C60.5682 21.6362 59.5814 21.9551 58.3149 21.9551C57.1441 21.9551 56.2089 21.7252 55.502 21.2729L55.907 19.8122C56.6728 20.2645 57.5122 20.4944 58.4253 20.4944C59.0807 20.4944 59.5962 20.3461 59.957 20.0495C60.3252 19.7529 60.5093 19.3525 60.5093 18.8557C60.5093 18.4109 60.3546 18.0401 60.0601 17.7361C59.7582 17.4321 59.2574 17.1504 58.5579 16.8909C56.636 16.1716 55.686 15.1262 55.686 13.7545C55.686 12.8573 56.0248 12.1233 56.6949 11.5449C57.365 10.974 58.256 10.6848 59.3679 10.6848C60.3546 10.6848 61.1794 10.8554 61.8347 11.2038L61.3929 12.6274C60.7744 12.2938 60.0822 12.1233 59.3016 12.1233C58.6904 12.1233 58.2044 12.279 57.8583 12.5755C57.5712 12.8499 57.4239 13.1761 57.4239 13.5691C57.4239 13.9992 57.5932 14.3625 57.9246 14.6368C58.2118 14.8963 58.742 15.1781 59.5078 15.4821C60.443 15.8602 61.1278 16.3051 61.5696 16.8167C62.0188 17.3283 62.2397 17.966 62.2397 18.7223Z" fill="#1B1B1B"/>
<path d="M68.0129 15.2151H66.091V19.0485C66.091 20.0198 66.4297 20.5092 67.1071 20.5092C67.4164 20.5092 67.6741 20.4795 67.8803 20.4276L67.9319 21.7622C67.5858 21.8883 67.1366 21.955 66.577 21.955C65.8848 21.955 65.3546 21.74 64.9643 21.3174C64.574 20.8947 64.3826 20.1829 64.3826 19.1893V15.2077H63.2412V13.8953H64.3826V12.4494L66.091 11.9304V13.8953H68.0129V15.2151Z" fill="#1B1B1B"/>
<path d="M76.6579 17.7807C76.6579 18.9967 76.3118 19.9903 75.627 20.7688C74.9053 21.5696 73.9481 21.97 72.7551 21.97C71.6064 21.97 70.6859 21.5844 70.0011 20.8207C69.3163 20.057 68.9775 19.0857 68.9775 17.9142C68.9775 16.6908 69.331 15.6898 70.0306 14.9113C70.7375 14.1327 71.6874 13.7397 72.8803 13.7397C74.0291 13.7397 74.9569 14.1253 75.6565 14.8964C76.3266 15.6379 76.6579 16.6018 76.6579 17.7807ZM74.8538 17.8178C74.8538 17.0912 74.6992 16.4757 74.3899 15.9567C74.0217 15.3265 73.4989 15.0151 72.8214 15.0151C72.1219 15.0151 71.5843 15.3265 71.2235 15.9567C70.9068 16.4757 70.7596 17.106 70.7596 17.8549C70.7596 18.5815 70.9142 19.2043 71.2235 19.7159C71.599 20.3462 72.1292 20.6576 72.8067 20.6576C73.4694 20.6576 73.9922 20.3388 74.3752 19.7011C74.6918 19.1672 74.8538 18.5444 74.8538 17.8178Z" fill="#1B1B1B"/>
<path d="M82.3277 15.4375C82.1583 15.4079 81.9743 15.3931 81.7754 15.3931C81.1643 15.3931 80.6856 15.6229 80.3542 16.09C80.0671 16.4978 79.9198 17.0243 79.9198 17.6471V21.7919H78.1746V16.3792C78.1746 15.4672 78.1599 14.6368 78.123 13.8953H79.64L79.7062 15.4079H79.7578C79.9419 14.8889 80.2291 14.4662 80.6267 14.1548C81.017 13.8731 81.4367 13.7322 81.8859 13.7322C82.0479 13.7322 82.1952 13.747 82.3204 13.7618L82.3277 15.4375Z" fill="#1B1B1B"/>
<path d="M90.1189 17.4692C90.1189 17.7806 90.0968 18.0475 90.0526 18.2625H84.8244C84.8465 19.0411 85.0969 19.6417 85.5829 20.0495C86.0247 20.4128 86.5917 20.5981 87.2912 20.5981C88.0644 20.5981 88.7713 20.4721 89.4046 20.2274L89.6771 21.4434C88.9333 21.7697 88.0571 21.9328 87.0482 21.9328C85.8332 21.9328 84.876 21.5695 84.1838 20.8502C83.4916 20.131 83.1455 19.1597 83.1455 17.9511C83.1455 16.7648 83.4695 15.7712 84.1175 14.9779C84.795 14.1326 85.7081 13.71 86.8568 13.71C87.9834 13.71 88.845 14.1326 89.4193 14.9779C89.8832 15.66 90.1189 16.483 90.1189 17.4692ZM88.4547 17.0169C88.4694 16.4979 88.3516 16.0456 88.116 15.6674C87.8141 15.1781 87.3501 14.9334 86.7316 14.9334C86.1646 14.9334 85.7007 15.1706 85.3472 15.6452C85.0601 16.0233 84.8833 16.483 84.8318 17.0095L88.4547 17.0169Z" fill="#1B1B1B"/>
<path d="M30.1345 6.92574H29.2214L28.7207 5.34643H26.9829L26.5042 6.92574H25.6206L27.3363 1.54272H28.3967L30.1345 6.92574ZM28.5661 4.67911L28.1169 3.27033C28.0727 3.12945 27.9843 2.78838 27.8444 2.25453H27.8297C27.7708 2.48438 27.6972 2.81804 27.572 3.27033L27.1302 4.67911H28.5661Z" fill="#1B1B1B"/>
<path d="M34.4349 3.04053L32.9769 6.92579H32.1448L30.731 3.04053H31.6514L32.3068 5.09438C32.4172 5.43545 32.513 5.7617 32.5866 6.07311H32.6087C32.675 5.79135 32.7707 5.46511 32.8885 5.09438L33.5365 3.04053H34.4349Z" fill="#1B1B1B"/>
<path d="M37.5426 6.92587L37.4763 6.481H37.4542C37.1891 6.8369 36.8136 7.01485 36.3276 7.01485C35.6354 7.01485 35.1494 6.52548 35.1494 5.873C35.1494 4.91651 35.9741 4.41973 37.4027 4.41973V4.34558C37.4027 3.83397 37.1302 3.58188 36.6001 3.58188C36.2171 3.58188 35.8858 3.67827 35.5912 3.87105L35.4145 3.30754C35.768 3.0851 36.2171 2.97388 36.74 2.97388C37.7488 2.97388 38.2569 3.50773 38.2569 4.58285V6.01387C38.2569 6.40685 38.2716 6.71085 38.3158 6.9407L37.5426 6.92587ZM37.4248 4.99066C36.4749 4.99066 35.9962 5.22051 35.9962 5.77661C35.9962 6.18441 36.2392 6.38461 36.5853 6.38461C37.0198 6.38461 37.4248 6.05095 37.4248 5.59124V4.99066Z" fill="#1B1B1B"/>
<path d="M40.1639 2.40295C39.8767 2.40295 39.6558 2.18051 39.6558 1.88392C39.6558 1.58734 39.884 1.37231 40.1786 1.37231C40.4732 1.37231 40.7088 1.58734 40.7014 1.88392C40.7014 2.19534 40.4805 2.40295 40.1639 2.40295ZM39.7515 3.04061H40.6057V6.91847H39.7515V3.04061Z" fill="#1B1B1B"/>
<path d="M42.1299 1.26099H42.9841V6.91835H42.1299V1.26099Z" fill="#1B1B1B"/>
<path d="M46.6217 6.92572L46.5554 6.48084H46.5334C46.2683 6.83674 45.8927 7.0147 45.4067 7.0147C44.7145 7.0147 44.2285 6.52533 44.2285 5.87284C44.2285 4.91636 45.0532 4.41958 46.4818 4.41958V4.34543C46.4818 3.83382 46.2094 3.58172 45.6792 3.58172C45.2963 3.58172 44.9649 3.67811 44.6703 3.87089L44.4936 3.29997C44.8471 3.07753 45.2963 2.96631 45.8191 2.96631C46.8279 2.96631 47.336 3.50016 47.336 4.57528V6.00631C47.336 6.39928 47.3507 6.70328 47.3875 6.93313H46.6217V6.92572ZM46.5039 4.9905C45.554 4.9905 45.0753 5.22036 45.0753 5.77645C45.0753 6.18426 45.3183 6.38445 45.6644 6.38445C46.0989 6.38445 46.5039 6.05079 46.5039 5.59109V4.9905Z" fill="#1B1B1B"/>
<path d="M50.8115 7.01474C50.2666 7.01474 49.8616 6.78488 49.5965 6.32518H49.5818L49.5303 6.92576H48.8013C48.8234 6.61435 48.8307 6.26586 48.8307 5.8803V1.26099H49.6923V3.61142H49.707C49.9647 3.18137 50.3697 2.96635 50.9367 2.96635C51.8645 2.96635 52.5125 3.76713 52.5125 4.93123C52.5125 6.1324 51.7909 7.01474 50.8115 7.01474ZM50.6348 3.64108C50.1415 3.64108 49.6923 4.07113 49.6923 4.67171V5.35386C49.6923 5.88771 50.0973 6.32518 50.6201 6.32518C51.2607 6.32518 51.6436 5.79874 51.6436 4.96089C51.6436 4.17493 51.246 3.64108 50.6348 3.64108Z" fill="#1B1B1B"/>
<path d="M53.7793 1.26099H54.6335V6.91835H53.7793V1.26099Z" fill="#1B1B1B"/>
<path d="M59.2945 5.19064H56.7246C56.7394 5.92469 57.2254 6.33991 57.9396 6.33991C58.3225 6.33991 58.6686 6.27317 58.9779 6.15454L59.1104 6.75513C58.7496 6.91825 58.3225 6.99239 57.8218 6.99239C56.6142 6.99239 55.8999 6.22869 55.8999 5.03493C55.8999 3.84859 56.6289 2.95142 57.7261 2.95142C58.7054 2.95142 59.3313 3.68547 59.3313 4.79766C59.3313 4.95337 59.324 5.08683 59.2945 5.19064ZM58.514 4.57522C58.514 3.97464 58.2121 3.552 57.6672 3.552C57.1738 3.552 56.7909 3.98205 56.732 4.57522H58.514Z" fill="#1B1B1B"/>
<path d="M64.486 7.0147C63.3594 7.0147 62.6304 6.16943 62.6304 5.02016C62.6304 3.81899 63.3741 2.96631 64.5523 2.96631C65.6642 2.96631 66.4079 3.7745 66.4079 4.95343C66.4079 6.16201 65.6421 7.0147 64.486 7.0147ZM64.5228 3.59655C63.9043 3.59655 63.5067 4.18231 63.5067 4.9905C63.5067 5.79128 63.9117 6.36962 64.5155 6.36962C65.1193 6.36962 65.5243 5.74679 65.5243 4.96826C65.5169 4.18231 65.1267 3.59655 64.5228 3.59655Z" fill="#1B1B1B"/>
<path d="M71.0102 6.92581H70.1561V4.69401C70.1561 4.00445 69.891 3.66337 69.3755 3.66337C68.8674 3.66337 68.5213 4.10084 68.5213 4.61245V6.9184H67.6672V4.15274C67.6672 3.81167 67.6598 3.44094 67.6377 3.04055H68.3888L68.4256 3.64113H68.4477C68.676 3.22591 69.1472 2.95898 69.6701 2.95898C70.4801 2.95898 71.0102 3.58181 71.0102 4.59762V6.92581Z" fill="#1B1B1B"/>
<path d="M76.614 3.69305H75.6715V5.57636C75.6715 6.05831 75.8409 6.29558 76.1722 6.29558C76.3195 6.29558 76.452 6.28075 76.5551 6.2585L76.5772 6.91099C76.4079 6.97772 76.1869 7.00738 75.9145 7.00738C75.237 7.00738 74.8394 6.62923 74.8394 5.65051V3.69305H74.2798V3.04797H74.8394V2.33617L75.6789 2.07666V3.04056H76.6214V3.69305" fill="#1B1B1B"/>
<path d="M81.1502 6.92575H80.296V4.70878C80.296 4.01181 80.0309 3.66332 79.5155 3.66332C79.0737 3.66332 78.6613 3.96732 78.6613 4.58273V6.91834H77.8071V1.26099H78.6613V3.58918H78.676C78.9485 3.16654 79.3314 2.95893 79.8321 2.95893C80.6495 2.95893 81.1502 3.59659 81.1502 4.61239V6.92575Z" fill="#1B1B1B"/>
<path d="M85.524 5.19064H82.9541C82.9688 5.92469 83.4548 6.33991 84.1691 6.33991C84.552 6.33991 84.8981 6.27317 85.2074 6.15454L85.3399 6.75513C84.9791 6.91825 84.552 6.99239 84.0513 6.99239C82.8437 6.99239 82.1294 6.22869 82.1294 5.03493C82.1294 3.84859 82.8584 2.95142 83.9556 2.95142C84.9349 2.95142 85.5608 3.68547 85.5608 4.79766C85.5608 4.95337 85.5534 5.08683 85.524 5.19064ZM84.7435 4.57522C84.7435 3.97464 84.4415 3.552 83.8966 3.552C83.4033 3.552 83.013 3.98205 82.9615 4.57522H84.7435Z" fill="#1B1B1B"/>
</svg>
