<svg width="95" height="23" viewBox="0 0 95 23" fill="none" xmlns="http://www.w3.org/2000/svg">
<path fill-rule="evenodd" clip-rule="evenodd" d="M0.981778 0.414394C0.735064 0.681813 0.593262 1.09341 0.593262 1.62825V20.6522C0.593262 21.1871 0.735064 21.5987 0.991001 21.8568L1.05787 21.9138L11.6273 11.2542V11.0147L1.04864 0.357422L0.981778 0.414394Z" fill="url(#paint0_linear_198_2101)"/>
<path fill-rule="evenodd" clip-rule="evenodd" d="M15.1436 14.8214L11.6182 11.2647V11.0159L15.1448 7.45923L15.2209 7.5069L19.392 9.8974C20.5863 10.5764 20.5863 11.6949 19.392 12.3832L15.2209 14.7737C15.2197 14.7737 15.1436 14.8214 15.1436 14.8214Z" fill="url(#paint1_linear_198_2101)"/>
<path fill-rule="evenodd" clip-rule="evenodd" d="M15.2194 14.7735L11.6178 11.1401L0.981445 21.8671C1.36996 22.288 2.02364 22.3357 2.75456 21.9241L15.2194 14.7735Z" fill="url(#paint2_linear_198_2101)"/>
<path fill-rule="evenodd" clip-rule="evenodd" d="M15.2194 7.50802L2.75456 0.366752C2.02479 -0.0541432 1.36996 0.00282877 0.981445 0.423724L11.6167 11.1403L15.2194 7.50802Z" fill="url(#paint3_linear_198_2101)"/>
<path opacity="0.2" fill-rule="evenodd" clip-rule="evenodd" d="M15.1438 14.6968L2.76432 21.7904C2.0726 22.1915 1.45582 22.1636 1.05808 21.7997L0.991211 21.8671L1.05808 21.9241C1.45582 22.2868 2.0726 22.3159 2.76432 21.9148L15.2291 14.7735L15.1438 14.6968Z" fill="black"/>
<path opacity="0.12" fill-rule="evenodd" clip-rule="evenodd" d="M19.3907 12.2586L15.1343 14.6968L15.2104 14.7736L19.3814 12.3831C19.9786 12.0389 20.2726 11.5901 20.2726 11.1401C20.2346 11.5517 19.9314 11.9436 19.3907 12.2586Z" fill="black"/>
<path opacity="0.25" fill-rule="evenodd" clip-rule="evenodd" d="M2.75489 0.491099L19.3908 10.0229C19.9315 10.3286 20.2347 10.7298 20.2819 11.1414C20.2819 10.6926 19.9879 10.2426 19.3908 9.89845L2.75489 0.366691C1.56052 -0.321623 0.593262 0.251584 0.593262 1.62821V1.75262C0.593262 0.375993 1.56052 -0.187914 2.75489 0.491099Z" fill="white"/>
<path fill-rule="evenodd" clip-rule="evenodd" d="M24.3426 10.5367C24.3426 7.48925 26.8824 5.00806 29.9041 5.00806C31.5746 5.00806 32.7632 5.66963 33.6601 6.53119L32.6041 7.59622C31.9631 6.98929 31.0938 6.5184 29.9029 6.5184C27.6963 6.5184 25.9716 8.31011 25.9716 10.5355C25.9716 12.7609 27.6963 14.555 29.9018 14.555C31.3325 14.555 32.1464 13.9759 32.6687 13.4481C33.0964 13.0167 33.3765 12.397 33.4849 11.5471H29.9041V10.0402H34.9444C34.9974 10.31 35.0251 10.6332 35.0251 10.9832C35.0251 12.1145 34.7173 13.5178 33.727 14.5166C32.7632 15.5281 31.5342 16.0676 29.9029 16.0676C26.8801 16.0676 24.3403 13.5888 24.3403 10.539L24.3426 10.5367ZM39.0994 8.94611C37.1475 8.94611 35.5543 10.4437 35.5543 12.5051C35.5543 14.5561 37.1464 16.0641 39.0994 16.0641C41.0523 16.0641 42.6421 14.5538 42.6421 12.504C42.6421 10.4425 41.0512 8.94495 39.0994 8.94611ZM39.0994 14.6643C38.0306 14.6643 37.1072 13.7748 37.1072 12.5063C37.1072 11.225 38.0295 10.3483 39.0994 10.3483C40.1681 10.3483 41.0904 11.2238 41.0904 12.5063C41.0904 13.7736 40.1692 14.6643 39.0994 14.6643ZM46.8293 8.94611C44.8775 8.94611 43.2866 10.4437 43.2866 12.5051C43.2866 14.5561 44.8775 16.0641 46.8293 16.0641C48.7811 16.0641 50.3721 14.5538 50.3721 12.504C50.3721 10.4425 48.7823 8.94495 46.8293 8.94611ZM46.8293 14.6643C45.7606 14.6643 44.8372 13.7748 44.8372 12.5063C44.8372 11.225 45.7595 10.3483 46.8293 10.3483C47.898 10.3483 48.8215 11.2238 48.8215 12.5063C48.8215 13.7736 47.898 14.6643 46.8293 14.6643ZM56.3163 9.16237V9.74139H56.2633C55.9162 9.32166 55.2476 8.94495 54.406 8.94495C52.641 8.94495 51.0212 10.5099 51.0212 12.5202C51.0212 14.5143 52.6398 16.0665 54.406 16.0665C55.2476 16.0665 55.9162 15.6897 56.2633 15.2584H56.3163V15.77C56.3163 17.1315 55.5946 17.8605 54.4314 17.8605C53.4814 17.8605 52.8934 17.1722 52.6525 16.5943L51.3013 17.1606C51.6887 18.1035 52.7193 19.2639 54.4302 19.2639C56.2471 19.2639 57.785 18.1837 57.785 15.5549V9.16121L56.3163 9.16237ZM54.5386 14.6643C53.4699 14.6643 52.5718 13.7597 52.5718 12.5202C52.5718 11.2669 53.4687 10.3495 54.5386 10.3495C55.5946 10.3495 56.4235 11.2657 56.4235 12.5202C56.4247 13.7597 55.5958 14.6643 54.5386 14.6643ZM58.8561 5.38593H60.4078V15.8502H58.8561V5.38593ZM64.6608 14.6643C63.8722 14.6643 63.3096 14.2992 62.951 13.5864L67.6709 11.6157L67.5083 11.211C67.2155 10.4169 66.3186 8.94611 64.4867 8.94611C62.6686 8.94611 61.1572 10.389 61.1572 12.5063C61.1572 14.5003 62.6548 16.0653 64.6608 16.0653C66.2794 16.0653 67.2155 15.0689 67.6029 14.4875L66.3993 13.6794C65.9969 14.2736 65.4482 14.6654 64.6608 14.6643ZM64.5397 10.3216C65.1542 10.3216 65.6753 10.632 65.8494 11.0762L62.6928 12.3982C62.6536 11.0227 63.75 10.3216 64.5397 10.3216ZM74.4797 5.38593H70.7698V15.8502H72.3181V11.8866H74.4809C76.1975 11.8866 77.8853 10.6332 77.8853 8.63567C77.8853 6.64165 76.1987 5.3871 74.4832 5.3871L74.4797 5.38593ZM74.5201 10.4297H72.3181V6.84163H74.5201C75.6776 6.84163 76.337 7.81016 76.337 8.63567C76.337 9.44723 75.6776 10.4297 74.5201 10.4297ZM80.2867 15.8502V5.38593H78.7384V15.8502H80.2867ZM87.242 15.8316V11.8203C87.242 9.96231 85.8655 8.92634 84.0889 8.92634C82.9695 8.92634 81.8085 9.42514 81.3278 10.5285L82.702 11.1064C82.996 10.5285 83.5424 10.339 84.1177 10.339C84.9178 10.339 85.7317 10.8239 85.7444 11.6866V11.7947C85.4643 11.6331 84.8648 11.3901 84.1292 11.3901C82.6478 11.3901 81.1399 12.211 81.1399 13.7457C81.1399 15.1468 82.355 16.0479 83.7165 16.0479C84.7587 16.0479 85.3317 15.577 85.6914 15.0258H85.7444V15.8339H87.2408L87.242 15.8316ZM83.9044 14.6619C83.3972 14.6619 82.6893 14.4061 82.6893 13.7748C82.6893 12.9667 83.5713 12.6551 84.3322 12.6551C85.0135 12.6551 85.3328 12.8028 85.7479 13.0051C85.6291 13.9445 84.8417 14.6503 83.9044 14.6619ZM92.687 9.1554L90.9116 13.6911H90.8585L89.0163 9.1554H87.3481L90.1103 15.4967L88.5344 19.0232H90.1495L94.4071 9.1554H92.687Z" fill="#1B1B1B"/>
<defs>
<linearGradient id="paint0_linear_198_2101" x1="10.6783" y1="1.42376" x2="-6.27114" y2="5.90177" gradientUnits="userSpaceOnUse">
<stop stop-color="#00A0FF"/>
<stop offset="0.007" stop-color="#00A1FF"/>
<stop offset="0.26" stop-color="#00BEFF"/>
<stop offset="0.512" stop-color="#00D2FF"/>
<stop offset="0.76" stop-color="#00DFFF"/>
<stop offset="1" stop-color="#00E3FF"/>
</linearGradient>
<linearGradient id="paint1_linear_198_2101" x1="20.9462" y1="11.1408" x2="0.302999" y2="11.1408" gradientUnits="userSpaceOnUse">
<stop stop-color="#FFE000"/>
<stop offset="0.409" stop-color="#FFBD00"/>
<stop offset="0.775" stop-color="#FFA500"/>
<stop offset="1" stop-color="#FF9C00"/>
</linearGradient>
<linearGradient id="paint2_linear_198_2101" x1="13.261" y1="13.1167" x2="-0.502066" y2="36.0851" gradientUnits="userSpaceOnUse">
<stop stop-color="#FF3A44"/>
<stop offset="1" stop-color="#C31162"/>
</linearGradient>
<linearGradient id="paint3_linear_198_2101" x1="-1.69599" y1="-5.91388" x2="4.44418" y2="4.34425" gradientUnits="userSpaceOnUse">
<stop stop-color="#32A071"/>
<stop offset="0.069" stop-color="#2DA771"/>
<stop offset="0.476" stop-color="#15CF74"/>
<stop offset="0.801" stop-color="#06E775"/>
<stop offset="1" stop-color="#00F076"/>
</linearGradient>
</defs>
</svg>
